<svg width="21" height="21" viewBox="0 0 21 21" fill="none" xmlns="http://www.w3.org/2000/svg">
<path d="M9.37703 1.18966C9.67688 0.269381 10.9788 0.269382 11.2786 1.18966L13.0297 6.56406C13.1639 6.97568 13.5476 7.25426 13.9805 7.25426H19.6413C20.6107 7.25426 21.013 8.49529 20.228 9.06405L15.6531 12.3787C15.3017 12.6333 15.1546 13.0856 15.2891 13.4983L17.0376 18.8649C17.3376 19.7858 16.2844 20.5527 15.5001 19.9845L10.9146 16.6621C10.5645 16.4085 10.0912 16.4085 9.74112 16.6621L5.15557 19.9845C4.37131 20.5527 3.31802 19.7858 3.61804 18.8649L5.36662 13.4983C5.50107 13.0856 5.35399 12.6333 5.00253 12.3787L0.427657 9.06405C-0.357349 8.49529 0.0449813 7.25426 1.01438 7.25426H6.67513C7.10806 7.25426 7.49182 6.97568 7.62594 6.56406L9.37703 1.18966Z" fill="black"/>
</svg>
